#!OML:ASF E:\motion texture\Top Level 1\Subject 1\Session 1\male.ASF
:FULLY-SPECIFIED
:DEGREES
368
root 3.38837 17.9118 6.65523 163.852 -85.7003 -157.786
lowerback 1.98617 -1.07647 -1.05402
upperback -1.40901 -1.43513 2.35289
thorax -2.47486 -0.685768 3.07028
lowerneck -19.2358 -1.63091 -3.91412
upperneck 19.7345 -1.948 3.18325
head 9.47875 -0.877948 1.47914
rclavicle -9.44227e-015 -1.03368e-014
rhumerus -39.7271 -29.6494 -56.8228
rradius 28.626
rwrist 11.9331
rhand -17.9983 -33.2338
rfingers 7.12502
rthumb 8.27193 -423.052
lclavicle -9.44227e-015 -1.03368e-014
lhumerus -12.0744 13.2299 73.1179
lradius 29.4742
lwrist -20.4973
lhand -16.6664 27.1064
lfingers 7.12502
lthumb 9.55725 56.8696
rfemur -34.8229 -7.12802 20.1715
rtibia 41.164
rfoot -2.49084 -17.025
rtoes 5.49041
lfemur -4.43101 -2.21715 -20.3697
ltibia 11.8448
lfoot -11.5305 1.54078
ltoes 3.98747
369
root 3.27129 17.9021 6.63762 164.07 -85.8315 -157.843
lowerback 1.93509 -1.15153 -1.18979
upperback -1.46482 -1.53849 2.41816
thorax -2.49229 -0.734203 3.21793
lowerneck -19.2757 -1.63269 -3.9169
upperneck 19.7701 -1.93841 3.13783
head 9.49769 -0.878761 1.46521
rclavicle -1.18774e-014 -1.27222e-014
rhumerus -39.0229 -28.9486 -58.1319
rradius 29.0334
rwrist 11.9718
rhand -17.8627 -32.5548
rfingers 7.12502
rthumb 8.40288 -422.368
lclavicle -1.18774e-014 -1.27222e-014
lhumerus -11.3524 11.9654 73.2634
lradius 30.3611
lwrist -19.6119
lhand -16.7706 26.9624
lfingers 7.12502
lthumb 9.45671 56.7302
rfemur -35.0085 -6.96867 20.0631
rtibia 39.357
rfoot -2.84228 -17.0594
rtoes 5.29246
lfemur -4.14376 -2.25959 -20.4041
ltibia 11.7981
lfoot -11.8657 1.45196
ltoes 3.81867
370
root 3.1531 17.8917 6.61967 164.347 -85.9568 -157.959
lowerback 1.8867 -1.22142 -1.32171
upperback -1.52213 -1.6348 2.48254
thorax -2.51268 -0.779058 3.36232
lowerneck -19.3161 -1.63664 -3.92053
upperneck 19.8022 -1.93178 3.09436
head 9.51566 -0.880769 1.45167
rclavicle -2.29348e-014 -1.59028e-015
rhumerus -38.3505 -28.2344 -59.4025
rradius 29.4364
rwrist 12.061
rhand -17.733 -31.866
rfingers 7.12502
rthumb 8.52805 -421.674
lclavicle -2.29348e-014 -1.59028e-015
lhumerus -10.6852 10.7237 73.3764
lradius 31.2618
lwrist -18.7881
lhand -16.8593 26.8031
lfingers 7.12502
lthumb 9.3711 56.5748
rfemur -35.1697 -6.79601 19.9499
rtibia 37.5721
rfoot -3.16608 -17.0697
rtoes 5.05248
lfemur -3.8613 -2.29834 -20.4373
ltibia 11.7661
lfoot -12.1993 1.36373
ltoes 3.63483
371
root 3.03383 17.8805 6.60131 164.69 -86.073 -158.138
lowerback 1.83909 -1.28547 -1.44773
upperback -1.57982 -1.72314 2.54487
thorax -2.53409 -0.819957 3.501
lowerneck -19.3578 -1.64212 -3.92379
upperneck 19.8303 -1.92788 3.05408
head 9.53261 -0.883597 1.43877
rclavicle 7.92654e-015 -1.66979e-014
rhumerus -37.7072 -27.5105 -60.6367
rradius 29.8337
rwrist 12.1958
rhand -17.6152 -31.1842
rfingers 7.12502
rthumb 8.64165 -420.987
lclavicle 7.92654e-015 -1.66979e-014
lhumerus -10.0717 9.50515 73.4585
lradius 32.1774
lwrist -18.0231
lhand -16.9301 26.6361
lfingers 7.12502
lthumb 9.30282 56.4108
rfemur -35.3122 -6.60444 19.834
rtibia 35.8256
rfoot -3.46445 -17.0566
rtoes 4.78043
lfemur -3.58513 -2.32991 -20.4673
ltibia 11.7493
lfoot -12.5292 1.27595
ltoes 3.43118
372
root 2.91336 17.8688 6.58252 165.062 -86.1818 -158.346
lowerback 1.79302 -1.34439 -1.56763
upperback -1.6365 -1.80444 2.60706
thorax -2.55547 -0.857393 3.63585
lowerneck -19.4023 -1.64935 -3.92672
upperneck 19.8543 -1.92619 3.01418
head 9.54871 -0.887304 1.42561
rclavicle 1.26228e-014 -1.07344e-014
rhumerus -37.0927 -26.7778 -61.8311
rradius 30.2261
rwrist 12.3729
rhand -17.5049 -30.5071
rfingers 7.12502
rthumb 8.74809 -420.306
lclavicle 1.26228e-014 -1.07344e-014
lhumerus -9.5084 8.31682 73.5175
lradius 33.1025
lwrist -17.3233
lhand -16.9885 26.4575
lfingers 7.12502
lthumb 9.24643 56.2348
rfemur -35.4345 -6.39477 19.7161
rtibia 34.1248
rfoot -3.73301 -17.0237
rtoes 4.48907
lfemur -3.31403 -2.3562 -20.4922
ltibia 11.7498
lfoot -12.8543 1.18796
ltoes 3.20277
373
root 2.79162 17.8565 6.56328 165.426 -86.2865 -158.546
lowerback 1.75198 -1.39939 -1.67899
upperback -1.69451 -1.88028 2.66914
thorax -2.58129 -0.892109 3.76579
lowerneck -19.4481 -1.65797 -3.93033
upperneck 19.8762 -1.92642 2.97584
head 9.56445 -0.891744 1.41281
rclavicle -2.96686e-014 2.18663e-014
rhumerus -36.511 -26.0393 -62.9809
rradius 30.612
rwrist 12.5909
rhand -17.4025 -29.8301
rfingers 7.12502
rthumb 8.84691 -419.625
lclavicle -2.96686e-014 2.18663e-014
lhumerus -8.99905 7.16007 73.5569
lradius 34.0372
lwrist -16.686
lhand -17.0351 26.2705
lfingers 7.12502
lthumb 9.20144 56.0497
rfemur -35.5382 -6.17028 19.5967
rtibia 32.4783
rfoot -3.96558 -16.9769
rtoes 4.18989
lfemur -3.04987 -2.38072 -20.5102
ltibia 11.7717
lfoot -13.174 1.09912
ltoes 2.94829
374
root 2.66869 17.8438 6.54352 165.76 -86.3822 -158.715
lowerback 1.71076 -1.44907 -1.77942
upperback -1.74998 -1.94871 2.73136
thorax -2.60489 -0.923325 3.88941
lowerneck -19.498 -1.66817 -3.93298
upperneck 19.8938 -1.92881 2.9381
head 9.5795 -0.89694 1.39973
rclavicle 2.48481e-016 2.3059e-014
rhumerus -35.956 -25.2967 -64.0911
rradius 30.9935
rwrist 12.8409
rhand -17.31 -29.1695
rfingers 7.12502
rthumb 8.9362 -418.96
lclavicle 2.48481e-016 2.3059e-014
lhumerus -8.5371 6.03918 73.5817
lradius 34.9791
lwrist -16.1102
lhand -17.0678 26.0803
lfingers 7.12502
lthumb 9.1699 55.861
rfemur -35.6304 -5.92639 19.481
rtibia 30.9
rfoot -4.15923 -16.9233
rtoes 3.86332
lfemur -2.7947 -2.40269 -20.5182
ltibia 11.817
lfoot -13.4861 1.01161
ltoes 2.66512
375
root 2.54438 17.831 6.52328 166.022 -86.4697 -158.815
lowerback 1.67342 -1.49362 -1.86671
upperback -1.80334 -2.00995 2.79404
thorax -2.62915 -0.951166 4.00596
lowerneck -19.5491 -1.67991 -3.93495
upperneck 19.9076 -1.93337 2.90084
head 9.59353 -0.902978 1.38636
rclavicle -1.19768e-014 1.23246e-014
rhumerus -35.4303 -24.5523 -65.1579
rradius 31.3698
rwrist 13.1179
rhand -17.2239 -28.5273
rfingers 7.12502
rthumb 9.01934 -418.314
lclavicle -1.19768e-014 1.23246e-014
lhumerus -8.12513 4.95446 73.5965
lradius 35.9253
lwrist -15.5968
lhand -17.0932 25.8873
lfingers 7.12502
lthumb 9.14539 55.669
rfemur -35.7073 -5.66516 19.3705
rtibia 29.3973
rfoot -4.31775 -16.8664
rtoes 3.52025
lfemur -2.54483 -2.42562 -20.5148
ltibia 11.8871
lfoot -13.7884 0.928162
ltoes 2.35234
376
root 2.41868 17.8181 6.50259 166.181 -86.5492 -158.815
lowerback 1.64124 -1.53361 -1.93842
upperback -1.85596 -2.0647 2.85752
thorax -2.65631 -0.975981 4.11453
lowerneck -19.6009 -1.69274 -3.93823
upperneck 19.9183 -1.93943 2.86596
head 9.60666 -0.909495 1.37381
rclavicle 2.17172e-014 -1.70955e-014
rhumerus -34.9358 -23.8073 -66.1794
rradius 31.7409
rwrist 13.4185
rhand -17.1453 -27.9025
rfingers 7.12502
rthumb 9.09511 -417.686
lclavicle 2.17172e-014 -1.70955e-014
lhumerus -7.76562 3.91034 73.6062
lradius 36.8738
lwrist -15.1433
lhand -17.1067 25.6959
lfingers 7.12502
lthumb 9.13235 55.4782
rfemur -35.7722 -5.38869 19.2679
rtibia 27.9792
rfoot -4.44035 -16.8077
rtoes 3.17625
lfemur -2.3031 -2.45001 -20.4989
ltibia 11.9854
lfoot -14.0794 0.848851
ltoes 2.00331
377
root 2.2915 17.8053 6.48146 166.234 -86.62 -158.713
lowerback 1.61345 -1.56864 -1.99477
upperback -1.90534 -2.11246 2.92166
thorax -2.68347 -0.997604 4.21499
lowerneck -19.6554 -1.70663 -3.94191
upperneck 19.9256 -1.94676 2.83222
head 9.61914 -0.916429 1.36151
rclavicle -9.14409e-015 7.95139e-016
rhumerus -34.4699 -23.0661 -67.156
rradius 32.1075
rwrist 13.7384
rhand -17.0724 -27.3007
rfingers 7.12502
rthumb 9.16552 -417.081
lclavicle -9.14409e-015 7.95139e-016
lhumerus -7.45556 2.90913 73.6158
lradius 37.8208
lwrist -14.7476
lhand -17.1162 25.5041
lfingers 7.12502
lthumb 9.12318 55.2868
rfemur -35.8258 -5.09939 19.1746
rtibia 26.6548
rfoot -4.53053 -16.7485
rtoes 2.84859
lfemur -2.0689 -2.47525 -20.4707
ltibia 12.1151
lfoot -14.3573 0.773218
ltoes 1.61972
378
root 2.1628 17.7928 6.45989 166.188 -86.682 -158.517
lowerback 1.59147 -1.59886 -2.03609
upperback -1.95185 -2.15343 2.98591
thorax -2.71188 -1.01612 4.30702
lowerneck -19.7104 -1.72103 -3.94492
upperneck 19.9286 -1.95482 2.79869
head 9.63027 -0.923566 1.34905
rclavicle 9.93923e-016 2.74323e-014
rhumerus -34.0327 -22.3303 -68.0874
rradius 32.4684
rwrist 14.0706
rhand -17.0053 -26.7234
rfingers 7.12502
rthumb 9.2302 -416.501
lclavicle 9.93923e-016 2.74323e-014
lhumerus -7.19718 1.95038 73.6292
lradius 38.7647
lwrist -14.4058
lhand -17.1257 25.3117
lfingers 7.12502
lthumb 9.11402 55.0948
rfemur -35.8693 -4.80009 19.0915
rtibia 25.4315
rfoot -4.59085 -16.6897
rtoes 2.54503
lfemur -1.84355 -2.50051 -20.4314
ltibia 12.2809
lfoot -14.6207 0.700953
ltoes 1.19291
